<?xml version="1.0" encoding="UTF-8" standalone="no"?>
<!-- Created with Inkscape (http://www.inkscape.org/) -->

<svg
   xmlns:dc="http://purl.org/dc/elements/1.1/"
   xmlns:cc="http://creativecommons.org/ns#"
   xmlns:rdf="http://www.w3.org/1999/02/22-rdf-syntax-ns#"
   xmlns:svg="http://www.w3.org/2000/svg"
   xmlns="http://www.w3.org/2000/svg"
   xmlns:sodipodi="http://sodipodi.sourceforge.net/DTD/sodipodi-0.dtd"
   xmlns:inkscape="http://www.inkscape.org/namespaces/inkscape"
   width="135"
   height="135"
   id="svg5438"
   version="1.1"
   inkscape:version="0.48.4 r9939"
   sodipodi:docname="iconmingitorio.svg">
  <defs
     id="defs5440" />
  <sodipodi:namedview
     id="base"
     pagecolor="#ffffff"
     bordercolor="#666666"
     borderopacity="1.0"
     inkscape:pageopacity="0.0"
     inkscape:pageshadow="2"
     inkscape:zoom="0.98994949"
     inkscape:cx="-158.18654"
     inkscape:cy="99.373726"
     inkscape:document-units="px"
     inkscape:current-layer="layer1"
     showgrid="false"
     fit-margin-top="0"
     fit-margin-left="0"
     fit-margin-right="0"
     fit-margin-bottom="0"
     inkscape:window-width="1342"
     inkscape:window-height="605"
     inkscape:window-x="225"
     inkscape:window-y="225"
     inkscape:window-maximized="0" />
  <metadata
     id="metadata5443">
    <rdf:RDF>
      <cc:Work
         rdf:about="">
        <dc:format>image/svg+xml</dc:format>
        <dc:type
           rdf:resource="http://purl.org/dc/dcmitype/StillImage" />
        <dc:title />
      </cc:Work>
    </rdf:RDF>
  </metadata>
  <g
     inkscape:label="Capa 1"
     inkscape:groupmode="layer"
     id="layer1"
     transform="translate(-314.46435,-457.18354)">
    <path
       style="font-size:40px;font-style:normal;font-variant:normal;font-weight:bold;font-stretch:normal;line-height:100%;letter-spacing:0px;word-spacing:0px;fill:#80c341;fill-opacity:1;stroke:#00d700;stroke-width:0.42555925000000000px;stroke-linecap:butt;stroke-linejoin:miter;stroke-opacity:1;font-family:Arial;-inkscape-font-specification:Arial Bold"
       d="m 357.14899,496.93566 c -1.69815,1.73306 -2.57997,17.2298 -2.57997,25.90593 0,8.67616 1.1335,23.38726 2.57997,25.89265 1.44647,2.5054 7.52706,7.52706 7.52706,7.52706 0,0 -0.17879,8.16831 3.03211,13.71099 1.156,1.86209 2.67754,3.54393 4.38107,4.99486 1.70355,1.45094 3.5891,2.67094 5.47327,3.60942 0,0 2.93906,0.85112 4.40856,0.85112 1.4695,0 4.40852,-0.85112 4.40852,-0.85112 0,0 6.63003,-3.06161 9.84106,-8.60428 3.21096,-5.54268 3.0321,-13.71099 3.0321,-13.71099 0,0 6.08063,-5.02166 7.5271,-7.52706 1.44647,-2.50539 2.57994,-17.21649 2.57994,-25.89265 0,-4.32261 -0.22015,-10.3364 -0.65099,-15.49759 -0.43086,-5.16115 -1.07253,-9.46969 -1.91563,-10.3817 0,0 -9.85464,-2.58688 -24.79295,-2.58688 -14.93835,0 -24.85122,2.56007 -24.85122,2.56007 z"
       id="path3934-1-5"
       inkscape:connector-curvature="0"
       sodipodi:nodetypes="cssccsczcscsssczcc" />
    <path
       style="font-size:40px;font-style:normal;font-variant:normal;font-weight:bold;font-stretch:normal;line-height:100%;letter-spacing:0px;word-spacing:0px;fill:#80c341;stroke:#ffffff;stroke-width:1.62835990999999990;stroke-linecap:butt;stroke-linejoin:miter;stroke-miterlimit:4;stroke-opacity:1;stroke-dasharray:none;font-family:Arial;-inkscape-font-specification:Arial Bold;fill-opacity:1"
       d="m 363.91085,503.57025 c -1.23543,1.26087 -1.87691,12.53492 -1.87691,18.84689 0,6.31202 0.8246,17.01454 1.87691,18.8372 1.05235,1.82275 5.47608,5.47601 5.47608,5.47601 0,0 -0.13027,5.94257 2.20587,9.97491 0.84099,1.35473 1.94791,2.57825 3.18726,3.63385 1.23938,1.05553 2.61111,1.94315 3.98189,2.62586 0,0 2.13817,0.61923 3.20725,0.61923 1.06912,0 3.20729,-0.61923 3.20729,-0.61923 0,0 4.82343,-2.22734 7.15947,-6.25971 2.33601,-4.03234 2.20591,-9.97491 2.20591,-9.97491 0,0 4.4237,-3.65329 5.47604,-5.47601 1.05231,-1.82272 1.87691,-12.52518 1.87691,-18.8372 0,-3.14475 -0.16023,-7.51986 -0.47359,-11.27469 -0.31362,-3.75481 -0.78028,-6.88924 -1.39368,-7.55279 0,0 -7.16934,-1.882 -18.03715,-1.882 -10.8678,0 -18.07955,1.86252 -18.07955,1.86252 z"
       id="path3934-1-4-5"
       inkscape:connector-curvature="0"
       sodipodi:nodetypes="cssccsczcscsssczcc" />
    <path
       inkscape:connector-curvature="0"
       style="font-size:40px;font-style:normal;font-variant:normal;font-weight:bold;font-stretch:normal;line-height:100%;letter-spacing:0px;word-spacing:0px;color:#000000;fill:#80c341;stroke:#ffffff;stroke-width:0.81417996000000004;stroke-miterlimit:4;stroke-opacity:1;stroke-dasharray:none;marker:none;visibility:visible;display:inline;overflow:visible;enable-background:accumulate;font-family:Arial;-inkscape-font-specification:Arial Bold;fill-opacity:1"
       d="m 381.64242,553.6754 c -0.0449,0.75966 -1.11725,1.55092 -2.38203,1.55049 -1.26448,0 -1.72355,-0.79203 -1.18066,-1.55127 0.42432,-0.59331 1.35825,-0.98682 2.16325,-0.98672 0.80512,0 1.43455,0.39393 1.39944,0.9875 0,0 0,0 0,0"
       id="path3982-1" />
    <path
       inkscape:connector-curvature="0"
       style="font-size:40px;font-style:normal;font-variant:normal;font-weight:bold;font-stretch:normal;line-height:100%;letter-spacing:0px;word-spacing:0px;color:#000000;fill:#80c341;stroke:#ffffff;stroke-width:0.81417996000000004;stroke-miterlimit:4;stroke-opacity:1;stroke-dasharray:none;marker:none;visibility:visible;display:inline;overflow:visible;enable-background:accumulate;font-family:Arial;-inkscape-font-specification:Arial Bold;fill-opacity:1"
       d="m 383.00539,551.80731 c 0.0912,0.312 -0.43513,0.6081 -1.19108,0.60803 -0.75578,0 -1.26071,-0.29603 -1.14721,-0.60812 0.0964,-0.26543 0.62168,-0.45331 1.18525,-0.45331 0.56361,0 1.07544,0.18792 1.15304,0.4534 0,0 0,0 0,0"
       id="path3982-0-7" />
    <path
       inkscape:connector-curvature="0"
       style="font-size:40px;font-style:normal;font-variant:normal;font-weight:bold;font-stretch:normal;line-height:100%;letter-spacing:0px;word-spacing:0px;color:#000000;fill:#80c341;stroke:#ffffff;stroke-width:0.81417996000000004;stroke-miterlimit:4;stroke-opacity:1;stroke-dasharray:none;marker:none;visibility:visible;display:inline;overflow:visible;enable-background:accumulate;font-family:Arial;-inkscape-font-specification:Arial Bold;fill-opacity:1"
       d="m 385.84884,553.67635 c 0.54351,0.76008 0.0834,1.55192 -1.18258,1.5515 -1.26576,0 -2.3382,-0.79259 -2.38295,-1.55229 -0.0348,-0.59366 0.59484,-0.98734 1.40036,-0.98724 0.80562,0 1.74049,0.3941 2.16517,0.98803 0,0 0,0 0,0"
       id="path3982-9-1" />
    <path
       style="font-size:40px;font-style:normal;font-variant:normal;font-weight:bold;font-stretch:normal;line-height:100%;letter-spacing:0px;word-spacing:0px;fill:#80c341;fill-opacity:1;stroke:none;font-family:Arial;-inkscape-font-specification:Arial Bold"
       d="m 384.03624,470.12041 c 0,6.07157 0,12.14317 0,18.21474 0.33303,1.27393 1.62458,1.89525 2.56841,2.67491 0.96666,0.67795 2.01223,1.26109 2.85875,2.09563 -0.14166,0.63955 -1.17574,0.20289 -1.73449,0.3172 -2.28977,0 -4.57941,0 -6.86908,0 m 2.09401,0 c -2.81368,-0.01 -5.62748,0.013 -8.44119,-0.01 -0.33854,-0.87641 1.23833,-1.15489 1.71189,-1.74654 1.22046,-0.86163 2.61531,-1.62465 3.42933,-2.91822 0.25468,-0.88726 0.071,-1.82673 0.12376,-2.73926 0,-5.29627 0,-10.59258 0,-15.88892 0.78477,0 1.53945,-0.39351 2.20994,-0.39351 0.67049,0 1.25667,0.39351 2.04141,0.39351"
       id="path4386-4-1"
       inkscape:connector-curvature="0"
       sodipodi:nodetypes="ccccccccccccsc" />
    <path
       style="font-size:medium;font-style:normal;font-variant:normal;font-weight:normal;font-stretch:normal;text-indent:0;text-align:start;text-decoration:none;line-height:normal;letter-spacing:normal;word-spacing:normal;text-transform:none;direction:ltr;block-progression:tb;writing-mode:lr-tb;text-anchor:start;baseline-shift:baseline;color:#000000;fill:#80c341;fill-opacity:1;stroke:none;stroke-width:2.97000003000000000;marker:none;visibility:visible;display:inline;overflow:visible;enable-background:accumulate;font-family:Sans;-inkscape-font-specification:Sans"
       d="m 381.96435,457.1548 c -37.24552,0 -67.52873,30.28322 -67.52873,67.52874 0,37.24551 30.28321,67.52873 67.52873,67.52873 37.24552,0 67.52874,-30.28322 67.52874,-67.52873 0,-37.24552 -30.28322,-67.52874 -67.52874,-67.52874 z m 0,5.74713 c 34.17061,0 61.78161,27.61099 61.78161,61.78161 0,34.17061 -27.611,61.7816 -61.78161,61.7816 -34.17061,0 -61.78161,-27.61099 -61.78161,-61.7816 0,-34.17062 27.611,-61.78161 61.78161,-61.78161 z"
       id="path10155-6-6-1-5"
       inkscape:connector-curvature="0" />
  </g>
</svg>
