<?xml version="1.0" encoding="UTF-8" standalone="no"?>
<!-- Created with Inkscape (http://www.inkscape.org/) -->

<svg
   xmlns:dc="http://purl.org/dc/elements/1.1/"
   xmlns:cc="http://creativecommons.org/ns#"
   xmlns:rdf="http://www.w3.org/1999/02/22-rdf-syntax-ns#"
   xmlns:svg="http://www.w3.org/2000/svg"
   xmlns="http://www.w3.org/2000/svg"
   xmlns:sodipodi="http://sodipodi.sourceforge.net/DTD/sodipodi-0.dtd"
   xmlns:inkscape="http://www.inkscape.org/namespaces/inkscape"
   width="135"
   height="135"
   id="svg3528"
   version="1.1"
   inkscape:version="0.48.4 r9939"
   sodipodi:docname="iconsala.svg"
   inkscape:export-filename="C:\xampp\htdocs\em\wp-content\themes\escumovil\img\iconsala.png"
   inkscape:export-xdpi="33.319149"
   inkscape:export-ydpi="33.319149">
  <defs
     id="defs3530" />
  <sodipodi:namedview
     id="base"
     pagecolor="#ffffff"
     bordercolor="#666666"
     borderopacity="1.0"
     inkscape:pageopacity="0.0"
     inkscape:pageshadow="2"
     inkscape:zoom="0.35"
     inkscape:cx="86.071444"
     inkscape:cy="41.785693"
     inkscape:document-units="px"
     inkscape:current-layer="layer1"
     showgrid="false"
     fit-margin-top="0"
     fit-margin-left="0"
     fit-margin-right="0"
     fit-margin-bottom="0"
     inkscape:window-width="871"
     inkscape:window-height="564"
     inkscape:window-x="175"
     inkscape:window-y="175"
     inkscape:window-maximized="0" />
  <metadata
     id="metadata3533">
    <rdf:RDF>
      <cc:Work
         rdf:about="">
        <dc:format>image/svg+xml</dc:format>
        <dc:type
           rdf:resource="http://purl.org/dc/dcmitype/StillImage" />
        <dc:title></dc:title>
      </cc:Work>
    </rdf:RDF>
  </metadata>
  <g
     inkscape:label="Capa 1"
     inkscape:groupmode="layer"
     id="layer1"
     transform="translate(-263.92856,-439.14788)">
    <g
       id="g3415"
       transform="matrix(4.2857143,0,0,4.2857143,-5054.4172,-2836.9369)"
       inkscape:export-filename="C:\xampp\htdocs\em\wp-content\themes\escumovil\img\iconsala.png"
       inkscape:export-xdpi="33.319149"
       inkscape:export-ydpi="33.319149">
      <g
         id="g5427"
         transform="translate(315.00003,17.994994)">
        <g
           style="fill:#00d700;fill-opacity:1;stroke:none"
           transform="matrix(0.04451659,0,0,0.04451659,1163.5319,776.85536)"
           id="g3929">
          <path
             style="fill:#00d700;fill-opacity:1;stroke:none"
             d="m -5189.0958,-392.72018 c -11.025,0.0448 -23.4161,6.21937 -36.5312,23.03125 -32.912,42.18877 23.75,73 23.75,73 0,0 5.8913,67.43904 11.5,77.75 10.6867,19.64679 44.5,23.75 44.5,23.75 l 19.875,0 285.625,0 19.875,0 c 0,0 33.8132,-4.10321 44.5,-23.75 5.6086,-10.31096 11.5,-77.75 11.5,-77.75 0,0 56.6619,-30.81123 23.75,-73 -32.2834,-41.38309 -60.1085,-18.32302 -74.25,2 -12.1451,17.45389 -26.3948,58.25692 -26.4688,58.46875 -0.034,-0.0148 -0.755,-0.29825 -1.25,-0.5 -6.0284,-2.68741 -53.0547,-22.32477 -140.4062,-21.46875 -0.042,-4.2e-4 -0.083,4.1e-4 -0.125,0 -87.3516,-0.85602 -134.3779,18.78134 -140.4063,21.46875 -0.4843,0.1974 -1.1759,0.48132 -1.2187,0.5 -0.055,-0.1574 -14.3468,-41.00315 -26.5,-58.46875 -8.3966,-12.06679 -21.6053,-25.09679 -37.7188,-25.03125 z"
             id="path3859"
             inkscape:connector-curvature="0" />
          <path
             style="fill:#00d700;fill-opacity:1;stroke:none"
             d="m -5113.1039,-349.93089 c 0,0 34.1994,-12.76256 129.7411,-12.76256 95.5417,0 130.625,14 130.625,14 0,0 11.474,-37.6681 37.375,-59.5 11.6835,-9.848 44.375,-11.5 44.375,-11.5 0,0 2.7072,-37.2928 -22.428,-62.428 -35.4995,-35.4995 -72.428,-32.428 -72.428,-32.428 l -231.3678,0 c 0,0 -39.4543,1.19092 -61.0915,19.91211 -40.6966,35.21201 -37.0915,74.9121 -37.0915,74.9121 0,0 26.2839,-2.29357 45.9276,13.14552 20.3683,15.28793 28.0763,35.09799 36.3631,56.64883 z"
             id="path3881"
             inkscape:connector-curvature="0"
             sodipodi:nodetypes="czcscsccsccc" />
          <path
             style="fill:#00d700;fill-opacity:1;stroke:none"
             d="m -5185.9043,-195.18893 c 0,0 10.0937,7.49886 16,9.25 13.7609,4.07989 43,2.25 43,2.25 l 0,24.25 c 0,0 1.75,14.5 -29.25,14.5 -31,0 -29.25,-14.5 -29.25,-14.5 z"
             id="path3902-4"
             inkscape:connector-curvature="0"
             sodipodi:nodetypes="cacczcc" />
          <path
             style="fill:#00d700;fill-opacity:1;stroke:none"
             d="m -4780.4748,-195.18893 c 0,0 -10.0937,7.49886 -16,9.25 -13.7609,4.07989 -43,2.25 -43,2.25 l 0,24.25 c 0,0 -1.75,14.5 29.25,14.5 31,0 29.25,-14.5 29.25,-14.5 z"
             id="path3902-0"
             inkscape:connector-curvature="0"
             sodipodi:nodetypes="cacczcc" />
        </g>
        <path
           sodipodi:type="arc"
           style="color:#000000;fill:none;stroke:#00d700;stroke-width:2.97000003;stroke-miterlimit:4;stroke-opacity:1;stroke-dasharray:none;marker:none;visibility:visible;display:inline;overflow:visible;enable-background:accumulate"
           id="path10155-6-0-3"
           sodipodi:cx="821.25"
           sodipodi:cy="551.25"
           sodipodi:rx="33.75"
           sodipodi:ry="33.75"
           d="m 855,551.25 c 0,18.63961 -15.11039,33.75 -33.75,33.75 -18.63961,0 -33.75,-15.11039 -33.75,-33.75 0,-18.63961 15.11039,-33.75 33.75,-33.75 18.63961,0 33.75,15.11039 33.75,33.75 z"
           transform="matrix(0.44699872,0,0,0.44699872,574.59961,515.76674)" />
      </g>
    </g>
  </g>
</svg>
