<?xml version="1.0" encoding="UTF-8" standalone="no"?>
<!-- Created with Inkscape (http://www.inkscape.org/) -->

<svg
   xmlns:dc="http://purl.org/dc/elements/1.1/"
   xmlns:cc="http://creativecommons.org/ns#"
   xmlns:rdf="http://www.w3.org/1999/02/22-rdf-syntax-ns#"
   xmlns:svg="http://www.w3.org/2000/svg"
   xmlns="http://www.w3.org/2000/svg"
   xmlns:xlink="http://www.w3.org/1999/xlink"
   xmlns:sodipodi="http://sodipodi.sourceforge.net/DTD/sodipodi-0.dtd"
   xmlns:inkscape="http://www.inkscape.org/namespaces/inkscape"
   width="60.79501"
   height="135"
   id="svg3347"
   version="1.1"
   inkscape:version="0.48.4 r9939"
   sodipodi:docname="icondamas.svg">
  <defs
     id="defs3349">
    <color-profile
       name="U.S.-Web-Coated--SWOP--v2"
       xlink:href="C:\Windows\system32\spool\drivers\color\USWebCoatedSWOP.icc"
       id="color-profile3755" />
  </defs>
  <sodipodi:namedview
     id="base"
     pagecolor="#ffffff"
     bordercolor="#666666"
     borderopacity="1.0"
     inkscape:pageopacity="0.0"
     inkscape:pageshadow="2"
     inkscape:zoom="1.4"
     inkscape:cx="-240.34828"
     inkscape:cy="178.87577"
     inkscape:document-units="px"
     inkscape:current-layer="layer1"
     showgrid="false"
     fit-margin-top="0"
     fit-margin-left="0"
     fit-margin-right="0"
     fit-margin-bottom="0"
     inkscape:window-width="1730"
     inkscape:window-height="732"
     inkscape:window-x="25"
     inkscape:window-y="25"
     inkscape:window-maximized="0" />
  <metadata
     id="metadata3352">
    <rdf:RDF>
      <cc:Work
         rdf:about="">
        <dc:format>image/svg+xml</dc:format>
        <dc:type
           rdf:resource="http://purl.org/dc/dcmitype/StillImage" />
        <dc:title />
      </cc:Work>
    </rdf:RDF>
  </metadata>
  <g
     inkscape:label="Capa 1"
     inkscape:groupmode="layer"
     id="layer1"
     transform="translate(-309.60247,-384.86218)">
    <path
       style="fill:#80c341 icc-color(U.S.-Web-Coated--SWOP--v2, 0.54702068, 0, 1, 0);fill-opacity:1;stroke:none"
       d="m 329.51317,412.24193 c -5.00423,0 -8.59937,6.32768 -10.1185,11.09574 l -9.54712,29.97955 c -1.82059,5.71423 7.05157,7.81624 8.50969,2.91676 l 8.58494,-28.86696 2.24017,0 -14.52364,49.91579 13.74183,0 0,39.00047 c 0,4.05226 10.05836,5.4412 10.05836,0 l 0,-38.82005 3.08217,0 0,38.82005 c 0,5.4412 10.0433,4.05226 10.0433,0 l 0,-39.00047 13.75689,0 -14.52369,-49.91579 2.22516,0 8.59995,28.86696 c 1.45816,4.89948 10.33028,2.79747 8.50974,-2.91676 l -9.56218,-29.97955 c -1.51913,-4.76806 -5.11427,-11.09574 -10.1185,-11.09574 l -5.3223,0 -10.31397,0 -5.3223,0 z"
       id="path4069"
       inkscape:connector-curvature="0" />
    <path
       sodipodi:type="arc"
       style="color:#000000;fill:#80c341 icc-color(U.S.-Web-Coated--SWOP--v2, 0.54702068, 0, 1, 0);fill-opacity:1;fill-rule:nonzero;stroke:none;stroke-width:2.94700002999999990;marker:none;visibility:visible;display:inline;overflow:visible;enable-background:accumulate"
       id="path3295-9"
       sodipodi:cx="-1900"
       sodipodi:cy="43.076466"
       sodipodi:rx="24.285715"
       sodipodi:ry="24.285715"
       d="m -1875.7143,43.076466 a 24.285715,24.285715 0 1 1 -48.5714,0 24.285715,24.285715 0 1 1 48.5714,0 z"
       transform="matrix(0.48111607,0,0,0.48111607,1254.1205,375.82165)" />
  </g>
</svg>
