<?xml version="1.0" encoding="UTF-8" standalone="no"?>
<!-- Created with Inkscape (http://www.inkscape.org/) -->

<svg
   xmlns:dc="http://purl.org/dc/elements/1.1/"
   xmlns:cc="http://creativecommons.org/ns#"
   xmlns:rdf="http://www.w3.org/1999/02/22-rdf-syntax-ns#"
   xmlns:svg="http://www.w3.org/2000/svg"
   xmlns="http://www.w3.org/2000/svg"
   xmlns:xlink="http://www.w3.org/1999/xlink"
   xmlns:sodipodi="http://sodipodi.sourceforge.net/DTD/sodipodi-0.dtd"
   xmlns:inkscape="http://www.inkscape.org/namespaces/inkscape"
   width="452.68631"
   height="177.09975"
   id="svg2"
   version="1.1"
   inkscape:version="0.48.4 r9939"
   sodipodi:docname="logo.svg">
  <defs
     id="defs4">
    <color-profile
       name="U.S.-Web-Coated--SWOP--v2"
       xlink:href="C:\Windows\system32\spool\drivers\color\USWebCoatedSWOP.icc"
       id="color-profile3791" />
  </defs>
  <sodipodi:namedview
     id="base"
     pagecolor="#ffffff"
     bordercolor="#666666"
     borderopacity="1.0"
     inkscape:pageopacity="0.0"
     inkscape:pageshadow="2"
     inkscape:zoom="1.28"
     inkscape:cx="488.86183"
     inkscape:cy="153.10207"
     inkscape:document-units="px"
     inkscape:current-layer="layer1"
     showgrid="false"
     showguides="true"
     inkscape:window-width="1920"
     inkscape:window-height="1028"
     inkscape:window-x="-8"
     inkscape:window-y="-8"
     inkscape:window-maximized="1"
     fit-margin-top="0"
     fit-margin-left="0"
     fit-margin-right="0"
     fit-margin-bottom="0" />
  <metadata
     id="metadata7">
    <rdf:RDF>
      <cc:Work
         rdf:about="">
        <dc:format>image/svg+xml</dc:format>
        <dc:type
           rdf:resource="http://purl.org/dc/dcmitype/StillImage" />
        <dc:title />
      </cc:Work>
    </rdf:RDF>
  </metadata>
  <g
     inkscape:label="Capa 1"
     inkscape:groupmode="layer"
     id="layer1"
     transform="translate(-145.70408,-471.88171)">
    <path
       inkscape:connector-curvature="0"
       id="path3001"
       style="font-size:164.99822998px;font-style:normal;font-variant:normal;font-weight:900;font-stretch:normal;text-align:start;line-height:125%;letter-spacing:0px;word-spacing:0px;writing-mode:lr-tb;text-anchor:start;fill:#414141;fill-opacity:1;stroke:none;font-family:Arial Black;-inkscape-font-specification:'Arial Black, Heavy'"
       d="m 145.70408,586.34187 51.00227,0 0,13.14969 -31.92895,0 0,9.78875 29.61831,0 0,12.56152 -29.61831,0 0,12.14141 32.85324,0 0,13.94791 -51.92656,0 z" />
    <path
       inkscape:connector-curvature="0"
       id="path3003"
       style="font-size:164.99822998px;font-style:normal;font-variant:normal;font-weight:900;font-stretch:normal;text-align:start;line-height:125%;letter-spacing:0px;word-spacing:0px;writing-mode:lr-tb;text-anchor:start;fill:#414141;fill-opacity:1;stroke:none;font-family:Arial Black;-inkscape-font-specification:'Arial Black, Heavy'"
       d="m 199.59264,635.57969 16.97277,-1.59645 c 0.70017,2.01658 1.68046,3.45898 2.94084,4.32722 1.26031,0.86824 2.94083,1.30237 5.04143,1.30236 2.29662,10e-6 4.07511,-0.49013 5.33548,-1.47042 0.98024,-0.72819 1.47037,-1.63844 1.47042,-2.73076 -5e-5,-1.23233 -0.64421,-2.1846 -1.93254,-2.8568 -0.92429,-0.47612 -3.375,-1.06429 -7.35207,-1.7645 -5.93767,-1.03627 -10.06185,-1.99554 -12.37245,-2.87781 -2.3107,-0.88222 -4.25721,-2.37364 -5.83963,-4.47425 -1.58248,-2.10056 -2.37369,-4.49523 -2.37369,-7.18401 0,-2.9408 0.85426,-5.4755 2.56272,-7.60414 1.70846,-2.12855 4.06114,-3.718 7.05797,-4.76834 2.99684,-1.05025 7.01595,-1.57539 12.05738,-1.57544 5.32146,5e-5 9.24957,0.40616 11.78434,1.21835 2.53467,0.81227 4.64924,2.07262 6.34373,3.78106 1.69443,1.70851 3.10186,4.01916 4.22222,6.93194 l -16.21655,1.59645 c -0.42014,-1.42837 -1.12036,-2.47866 -2.1006,-3.15088 -1.34438,-0.89622 -2.96884,-1.34435 -4.87337,-1.34438 -1.93259,3e-5 -3.33996,0.34313 -4.22217,1.02928 -0.88226,0.68623 -1.32341,1.51947 -1.32336,2.49971 -5e-5,1.09234 0.5601,1.91856 1.68046,2.47869 1.12026,0.56019 3.55694,1.06433 7.31005,1.51243 5.68554,0.6442 9.91475,1.54045 12.68756,2.68875 2.77271,1.14835 4.89433,2.78681 6.3648,4.91538 1.47036,2.12862 2.20557,4.46727 2.20557,7.01597 0,2.57673 -0.77724,5.08344 -2.33161,7.52011 -1.55453,2.43669 -4.00518,4.37623 -7.35208,5.81863 -3.34699,1.4424 -7.90524,2.16361 -13.67484,2.16361 -8.15028,0 -13.95492,-1.16233 -17.41388,-3.48698 -3.45901,-2.32465 -5.6786,-5.62957 -6.6589,-9.91478 z" />
    <path
       inkscape:connector-curvature="0"
       id="path3005"
       style="font-size:164.99822998px;font-style:normal;font-variant:normal;font-weight:900;font-stretch:normal;text-align:start;line-height:125%;letter-spacing:0px;word-spacing:0px;writing-mode:lr-tb;text-anchor:start;fill:#414141;fill-opacity:1;stroke:none;font-family:Arial Black;-inkscape-font-specification:'Arial Black, Heavy'"
       d="m 284.3179,630.49626 16.25858,1.84852 c -0.89629,3.38897 -2.3667,6.32278 -4.41125,8.80147 -2.04459,2.4787 -4.65633,4.40424 -7.83521,5.77662 -3.17893,1.37239 -7.21905,2.05858 -12.12037,2.05858 -4.73335,0 -8.67544,-0.44113 -11.82632,-1.32337 -3.15092,-0.88225 -5.86064,-2.31065 -8.12926,-4.28521 -2.26867,-1.97454 -4.04716,-4.29219 -5.33554,-6.95294 -1.28837,-2.66074 -1.93253,-6.18973 -1.93253,-10.58698 0,-4.59326 0.78422,-8.41633 2.35267,-11.46921 1.14831,-2.2406 2.71676,-4.25016 4.7053,-6.0287 1.98854,-1.77846 4.03314,-3.10182 6.13374,-3.97011 3.33292,-1.37234 7.6041,-2.05853 12.8136,-2.05858 7.28199,5e-5 12.83456,1.30241 16.65765,3.9071 3.82304,2.60477 6.50481,6.41383 8.04526,11.42721 l -16.09051,2.14259 c -0.50415,-1.9045 -1.4214,-3.3399 -2.75175,-4.3062 -1.33041,-0.96624 -3.11594,-1.44937 -5.3565,-1.44941 -2.82882,4e-5 -5.11845,1.01532 -6.86895,3.04585 -1.75049,2.0306 -2.62576,5.10447 -2.62571,9.22159 -5e-5,3.66905 0.86818,6.45583 2.6047,8.36035 1.73646,1.90454 3.94908,2.85681 6.63788,2.8568 2.24057,10e-6 4.12414,-0.57415 5.65056,-1.72249 1.52642,-1.1483 2.66774,-2.9128 3.42396,-5.29348 z" />
    <path
       inkscape:connector-curvature="0"
       id="path3007"
       style="font-size:164.99822998px;font-style:normal;font-variant:normal;font-weight:900;font-stretch:normal;text-align:start;line-height:125%;letter-spacing:0px;word-spacing:0px;writing-mode:lr-tb;text-anchor:start;fill:#414141;fill-opacity:1;stroke:none;font-family:Arial Black;-inkscape-font-specification:'Arial Black, Heavy'"
       d="m 351.35619,647.93115 -15.96447,0 0,-7.22603 c -2.38068,2.96884 -4.78237,5.08344 -7.20503,6.34379 -2.42271,1.26035 -5.39853,1.89053 -8.92746,1.89053 -4.70535,0 -8.39537,-1.4074 -11.07015,-4.22219 -2.67473,-2.81478 -4.01212,-7.14899 -4.01212,-13.00264 l 0,-28.39997 17.18282,0 0,24.53488 c 0,2.8008 0.51812,4.78936 1.55447,5.96567 1.03625,1.17634 2.49264,1.76451 4.36922,1.7645 2.04454,10e-6 3.71802,-0.78421 5.02042,-2.35266 1.30229,-1.56842 1.95349,-4.38321 1.95355,-8.44437 l 0,-21.46802 17.09875,0 z" />
    <path
       inkscape:connector-curvature="0"
       id="path3009"
       style="font-size:164.99822998000002000px;font-style:normal;font-variant:normal;font-weight:900;font-stretch:normal;text-align:start;line-height:125%;letter-spacing:0px;word-spacing:0px;writing-mode:lr-tb;text-anchor:start;fill:#80c341 icc-color(U.S.-Web-Coated--SWOP--v2, 0.54702068, 0, 1, 0);fill-opacity:1;stroke:none;font-family:Arial Black;-inkscape-font-specification:'Arial Black, Heavy'"
       d="m 357.00794,603.31464 15.96448,0 0,6.51182 c 2.29662,-2.71672 4.61425,-4.64926 6.95295,-5.79763 2.3386,-1.14827 5.16038,-1.72243 8.46535,-1.72248 3.55699,5e-5 6.37173,0.63023 8.44438,1.89054 2.07255,1.26039 3.76698,3.13691 5.08341,5.62957 2.68871,-2.91277 5.13942,-4.89433 7.35208,-5.94467 2.21256,-1.05025 4.94329,-1.57539 8.19231,-1.57544 4.78925,5e-5 8.52828,1.42144 11.21714,4.2642 2.68866,2.84283 4.03304,7.28908 4.03314,13.33874 l 0,28.02186 -17.14084,0 0,-25.41713 c -5e-5,-2.01654 -0.39214,-3.51495 -1.17631,-4.49526 -1.14841,-1.5404 -2.5768,-2.31061 -4.28521,-2.31065 -2.01665,4e-5 -3.6411,0.72824 -4.87337,2.18461 -1.23242,1.45644 -1.84858,3.7951 -1.84852,7.01597 l 0,23.02246 -17.14079,0 0,-24.57689 c -5e-5,-1.96052 -0.11206,-3.2909 -0.33613,-3.99112 -0.36414,-1.12029 -0.99427,-2.02354 -1.89051,-2.70976 -0.89629,-0.68616 -1.94656,-1.02926 -3.15088,-1.02929 -1.96058,3e-5 -3.57101,0.74224 -4.83138,2.22663 -1.26037,1.48444 -1.89051,3.92112 -1.89051,7.31004 l 0,22.77039 -17.14079,0 z" />
    <path
       inkscape:connector-curvature="0"
       id="path3011"
       style="font-size:164.99822998000002000px;font-style:normal;font-variant:normal;font-weight:900;font-stretch:normal;text-align:start;line-height:125%;letter-spacing:0px;word-spacing:0px;writing-mode:lr-tb;text-anchor:start;fill:#80c341 icc-color(U.S.-Web-Coated--SWOP--v2, 0.54702068, 0, 1, 0);fill-opacity:1;stroke:none;font-family:Arial Black;-inkscape-font-specification:'Arial Black, Heavy'"
       d="m 436.37039,625.74893 c 0,-6.80588 2.29668,-12.41445 6.88996,-16.82572 4.59329,-4.4112 10.79701,-6.61681 18.61121,-6.61686 8.93445,5e-5 15.68434,2.59077 20.24968,7.77218 3.669,4.17321 5.5035,9.31264 5.50355,15.41833 -5e-5,6.86194 -2.2757,12.48451 -6.82691,16.86773 -4.55131,4.38323 -10.84608,6.57485 -18.88429,6.57485 -7.17004,0 -12.96764,-1.82051 -17.39292,-5.46154 -5.43352,-4.50925 -8.15028,-10.41891 -8.15028,-17.72897 z m 17.14084,-0.042 c -5e-5,3.97714 0.80519,6.91796 2.41567,8.82248 1.61043,1.90454 3.63401,2.85681 6.07069,2.8568 2.46469,10e-6 4.48822,-0.93825 6.0707,-2.81479 1.58242,-1.87651 2.37364,-4.88735 2.37369,-9.03254 -5e-5,-3.86505 -0.79825,-6.74286 -2.39466,-8.63342 -1.5965,-1.89049 -3.57106,-2.83576 -5.92369,-2.83579 -2.49274,3e-5 -4.55131,0.9593 -6.17571,2.87781 -1.62451,1.91856 -2.43674,4.83838 -2.43669,8.75945 z" />
    <path
       inkscape:connector-curvature="0"
       id="path3013"
       style="font-size:164.99822998000002000px;font-style:normal;font-variant:normal;font-weight:900;font-stretch:normal;text-align:start;line-height:125%;letter-spacing:0px;word-spacing:0px;writing-mode:lr-tb;text-anchor:start;fill:#80c341 icc-color(U.S.-Web-Coated--SWOP--v2, 0.54702068, 0, 1, 0);fill-opacity:1;stroke:none;font-family:Arial Black;-inkscape-font-specification:'Arial Black, Heavy'"
       d="m 483.55922,603.31464 17.81301,0 8.65442,28.27393 8.94854,-28.27393 17.26682,0 -18.94734,44.61651 -15.16622,0 z" />
    <path
       inkscape:connector-curvature="0"
       id="path3015"
       style="font-size:164.99822998000002000px;font-style:normal;font-variant:normal;font-weight:900;font-stretch:normal;text-align:start;line-height:125%;letter-spacing:0px;word-spacing:0px;writing-mode:lr-tb;text-anchor:start;fill:#80c341 icc-color(U.S.-Web-Coated--SWOP--v2, 0.54702068, 0, 1, 0);fill-opacity:1;stroke:none;font-family:Arial Black;-inkscape-font-specification:'Arial Black, Heavy'"
       d="m 537.69991,586.34187 17.09876,0 0,11.63727 -17.09876,0 z m 0,16.97277 17.09876,0 0,44.61651 -17.09876,0 z" />
    <path
       inkscape:connector-curvature="0"
       id="path3017"
       style="font-size:164.99822998000002000px;font-style:normal;font-variant:normal;font-weight:900;font-stretch:normal;text-align:start;line-height:125%;letter-spacing:0px;word-spacing:0px;writing-mode:lr-tb;text-anchor:start;fill:#80c341 icc-color(U.S.-Web-Coated--SWOP--v2, 0.54702068, 0, 1, 0);fill-opacity:1;stroke:none;font-family:Arial Black;-inkscape-font-specification:'Arial Black, Heavy'"
       d="m 561.9589,586.34187 17.14079,0 0,61.58928 -17.14079,0 z" />
    <text
       xml:space="preserve"
       style="font-size:17.54573822000000000px;font-style:normal;font-weight:normal;line-height:125%;letter-spacing:0px;word-spacing:0px;fill:#80c341 icc-color(U.S.-Web-Coated--SWOP--v2, 0.54702068, 0, 1, 0);fill-opacity:1;stroke:none;font-family:Sans"
       x="584.81128"
       y="596.30493"
       id="text3028"
       sodipodi:linespacing="125%"><tspan
         sodipodi:role="line"
         id="tspan3030"
         x="584.81128"
         y="596.30493"
         style="font-size:17.54573822000000000px;font-style:normal;font-variant:normal;font-weight:900;font-stretch:normal;text-align:start;line-height:125%;writing-mode:lr-tb;text-anchor:start;fill:#80c341 icc-color(U.S.-Web-Coated--SWOP--v2, 0.54702068, 0, 1, 0);fill-opacity:1;font-family:Arial Black;-inkscape-font-specification:'Arial Black, Heavy'">®</tspan></text>
    <path
       sodipodi:type="arc"
       id="path3040"
       sodipodi:cx="-444.21457"
       sodipodi:cy="516.22369"
       sodipodi:rx="29.041885"
       sodipodi:ry="29.546963"
       d="m -415.17268,516.22369 a 29.041885,29.546963 0 1 1 -58.08377,0 29.041885,29.546963 0 1 1 58.08377,0 z"
       transform="matrix(0.64842536,0,0,0.61059962,625.83323,205.0055)"
       style="fill:#e56013;fill-opacity:1" />
    <path
       sodipodi:type="arc"
       id="path3040-1"
       sodipodi:cx="-444.21457"
       sodipodi:cy="516.22369"
       sodipodi:rx="29.041885"
       sodipodi:ry="29.546963"
       d="m -415.17268,516.22369 a 29.041885,29.546963 0 1 1 -58.08377,0 29.041885,29.546963 0 1 1 58.08377,0 z"
       transform="matrix(0.55660291,0,0,0.42118004,585.7357,266.90318)"
       style="fill:#80c341 icc-color(U.S.-Web-Coated--SWOP--v2, 0.54702068, 0, 1, 0);fill-opacity:1" />
    <rect
       style="fill:#80c341 icc-color(U.S.-Web-Coated--SWOP--v2, 0.54702068, 0, 1, 0);fill-opacity:1"
       id="rect3828"
       width="37.267925"
       height="35.292599"
       x="319.35696"
       y="544.83728"
       ry="17.646299" />
    <rect
       style="fill:#e56013;fill-opacity:1"
       id="rect3833"
       width="31.824112"
       height="34.230637"
       x="430.43405"
       y="548.65924"
       ry="16.155861"
       transform="matrix(1,0,-0.12180545,0.99255399,0,0)" />
    <rect
       style="fill:#e56013;fill-opacity:1"
       id="rect3835"
       width="32.125725"
       height="34.304863"
       x="301.7225"
       y="507.28751"
       rx="16.062862"
       ry="17.152431"
       transform="matrix(1,0,0.11400592,0.99348007,0,0)" />
    <rect
       style="fill:#e56013;fill-opacity:1"
       id="rect3855"
       width="28.097403"
       height="26.164995"
       x="171.39815"
       y="508.54669"
       rx="14.048701"
       ry="24.24288"
       transform="matrix(1,0,0.36136064,0.93242613,0,0)" />
    <rect
       style="fill:#80c341 icc-color(U.S.-Web-Coated--SWOP--v2, 0.54702068, 0, 1, 0);fill-opacity:1"
       id="rect3859"
       width="17.330969"
       height="26.252151"
       x="146.58858"
       y="537.57227"
       rx="8.6654844"
       ry="23.897324"
       transform="matrix(1,0,0.44834659,0.8938598,0,0)" />
    <rect
       style="fill:#e56013;fill-opacity:1"
       id="rect3861"
       width="20.47785"
       height="30.482309"
       x="328.74527"
       y="512.92761"
       rx="9.6594906"
       ry="30.062878"
       transform="matrix(1,0,0.13026488,0.99147923,0,0)" />
    <rect
       style="fill:#80c341 icc-color(U.S.-Web-Coated--SWOP--v2, 0.54702068, 0, 1, 0);fill-opacity:1"
       id="rect3863"
       width="19.712448"
       height="29.221189"
       x="477.99637"
       y="550.02258"
       rx="9.5271282"
       ry="29.221189"
       transform="matrix(1,0,-0.14169877,0.98990982,0,0)" />
  </g>
</svg>
